<?xml version="1.0" standalone="no"?>
<!DOCTYPE svg PUBLIC "-//W3C//DTD SVG 20010904//EN"
 "http://www.w3.org/TR/2001/REC-SVG-20010904/DTD/svg10.dtd">
<svg version="1.0" xmlns="http://www.w3.org/2000/svg"
 width="340.000000pt" height="418.000000pt" viewBox="0 0 340.000000 418.000000"
 preserveAspectRatio="xMidYMid meet">
<metadata>
Created by potrace 1.16, written by Peter Selinger 2001-2019
</metadata>
<g transform="translate(0.000000,418.000000) scale(0.100000,-0.100000)"
fill="#000000" stroke="none">
<path d="M0 3851 c0 -296 2 -329 16 -335 9 -4 14 -9 11 -13 -4 -3 -2 -14 3
-24 7 -13 5 -27 -10 -52 -20 -33 -20 -47 -17 -303 2 -148 6 -284 9 -302 3 -18
2 -35 -2 -37 -4 -2 -8 -32 -9 -67 -1 -34 1 -59 5 -55 5 4 7 26 5 47 -1 24 2
40 8 40 6 0 11 -8 11 -17 1 -17 1 -17 11 0 11 19 27 17 87 -10 18 -8 40 -12
48 -9 8 3 14 2 14 -3 0 -17 45 -20 75 -5 28 14 33 13 89 -16 34 -17 62 -26 66
-21 7 12 69 11 76 0 2 -5 11 -6 20 -2 8 3 23 -4 33 -16 10 -11 24 -21 30 -21
13 0 53 -21 62 -33 3 -5 8 -8 10 -7 4 1 27 -6 71 -22 19 -7 25 -15 20 -26 -5
-15 -4 -15 12 1 9 9 28 17 42 17 13 0 24 4 24 9 0 5 12 8 26 5 30 -5 54 11 54
36 0 13 -6 16 -25 12 -17 -3 -27 1 -31 12 -10 26 -70 21 -96 -9 -28 -32 -37
-32 -49 5 -10 26 -16 30 -50 30 -38 0 -39 1 -39 35 0 19 -4 35 -9 35 -22 0
-40 -13 -34 -24 9 -14 15 -56 8 -56 -15 0 -55 46 -55 64 0 16 2 18 9 7 6 -10
11 -5 16 19 5 23 3 37 -8 48 -14 13 -17 13 -32 -2 -20 -20 -26 -20 -19 -2 3 9
-5 18 -23 24 -22 8 -24 11 -8 12 20 1 20 1 0 9 -15 6 -19 16 -17 43 2 23 -2
39 -14 49 -21 17 -18 17 -36 1 -13 -10 -17 -9 -22 10 -9 36 -8 38 24 38 18 0
39 9 53 23 l22 22 3 -22 c2 -13 10 -23 18 -23 8 0 13 -4 9 -9 -3 -5 11 -15 30
-21 28 -9 35 -17 35 -37 0 -22 3 -24 23 -18 12 4 50 7 85 8 39 1 66 7 71 15 6
10 12 7 25 -12 17 -27 50 -34 61 -15 4 6 13 8 21 5 8 -3 14 -2 14 2 0 13 -22
31 -34 28 -6 -2 -8 -1 -4 1 4 2 4 11 1 19 -3 8 1 14 8 15 8 0 3 5 -11 11 -14
6 -28 10 -32 10 -10 -3 -10 10 1 27 5 8 26 17 47 21 l39 8 -44 1 c-37 1 -42 3
-31 16 7 8 15 13 19 11 14 -9 41 24 45 55 2 19 4 39 5 44 0 6 19 11 42 11 23
1 37 -1 31 -5 -6 -4 -5 -10 2 -17 9 -9 23 -8 52 3 21 8 57 15 79 15 22 0 34 3
28 5 -25 9 -13 23 20 23 21 0 28 3 19 9 -10 6 -7 10 12 15 18 4 28 16 35 39 8
29 9 26 10 -28 1 -33 1 -68 2 -78 0 -9 12 -23 27 -31 15 -8 36 -24 47 -36 15
-16 4 -13 -41 14 -45 27 -78 38 -128 45 -67 8 -68 7 -102 -24 -45 -43 -74
-108 -74 -172 0 -63 13 -75 37 -31 l18 33 3 -26 c2 -15 -4 -54 -12 -87 -24
-90 -17 -200 12 -210 7 -2 12 6 12 22 0 14 5 26 10 26 6 0 10 -7 10 -15 0 -8
7 -15 15 -15 8 0 15 -4 15 -9 0 -4 11 -20 25 -35 23 -25 45 -82 45 -119 0 -10
9 -36 21 -58 23 -46 26 -93 16 -289 -5 -93 -3 -136 7 -171 8 -26 12 -65 9 -87
-3 -24 0 -48 8 -63 8 -13 17 -60 20 -104 8 -91 26 -191 38 -213 8 -14 -7 -92
-28 -145 -6 -16 -9 -32 -6 -37 10 -16 -20 -16 -63 0 -24 9 -57 32 -72 51 -16
18 -38 34 -50 34 -12 0 -27 13 -38 35 -12 21 -28 36 -41 38 -12 2 -25 10 -28
18 -3 8 -11 14 -19 14 -18 0 -18 5 1 33 13 20 13 26 -1 52 -8 16 -14 36 -13
44 1 9 -3 27 -8 41 -7 16 -7 32 -1 45 8 18 8 18 -5 3 -12 -16 -15 -15 -42 6
-20 16 -26 28 -22 40 4 10 2 26 -3 37 -9 16 -7 19 9 19 11 0 22 8 24 17 4 17
5 17 6 0 1 -11 6 -15 12 -11 8 5 8 1 0 -14 -14 -25 -2 -57 22 -58 15 -2 16 1
5 14 -10 12 -10 16 0 19 6 3 9 10 5 16 -5 7 -8 26 -8 42 0 20 -5 29 -14 27 -9
-2 -11 3 -7 13 3 9 -1 18 -9 21 -9 4 -15 19 -15 35 0 16 -4 29 -9 29 -15 0
-22 -31 -15 -66 4 -22 2 -34 -5 -34 -6 0 -11 9 -11 20 0 11 -7 20 -15 20 -20
0 -37 36 -40 82 -3 48 -9 55 -30 34 -20 -20 -29 -21 -22 -2 6 14 -16 16 -29 3
-4 -4 -14 -7 -21 -7 -20 0 -12 45 7 46 8 1 21 2 28 3 14 1 17 31 3 31 -5 0
-11 8 -13 18 -4 13 -13 18 -29 17 -13 -1 -27 3 -31 9 -5 7 -8 5 -8 -5 0 -9 9
-28 21 -43 11 -14 19 -26 17 -27 -31 -6 -59 -6 -63 2 -4 5 -1 9 4 9 6 0 11 5
11 10 0 6 -7 10 -15 10 -8 0 -24 5 -35 12 -22 14 -39 3 -22 -14 15 -15 16 -28
2 -28 -6 0 -9 3 -8 8 1 4 -4 18 -12 32 -7 14 -13 38 -12 55 3 40 -16 85 -34
78 -8 -3 -11 -9 -8 -14 9 -15 -13 -10 -26 6 -6 8 -8 20 -4 26 4 8 3 9 -4 5 -7
-4 -12 -20 -12 -36 0 -16 -5 -32 -10 -35 -6 -3 -10 -16 -10 -28 0 -16 -3 -18
-9 -9 -6 10 -10 7 -15 -13 -5 -21 -10 -24 -20 -16 -21 18 -74 1 -96 -29 -20
-28 -28 -110 -11 -110 4 0 0 -25 -10 -57 -11 -31 -19 -66 -19 -78 0 -13 -6
-28 -14 -34 -8 -7 -18 -27 -22 -44 -3 -17 -11 -39 -17 -49 -9 -13 -7 -21 7
-37 17 -19 17 -20 -3 -30 -12 -7 -23 -26 -27 -49 -4 -20 -15 -48 -25 -61 l-19
-23 -10 26 c-10 28 -30 35 -30 11 0 -9 -6 -18 -14 -21 -17 -7 -16 -56 3 -95
11 -21 10 -32 -3 -64 -15 -34 -16 -110 -15 -652 0 -435 4 -611 11 -607 11 7 9
-14 -8 -94 l-7 -32 1156 0 c1019 0 1156 2 1151 15 -4 10 -21 15 -55 15 -27 0
-49 5 -49 10 0 6 11 10 24 10 14 0 28 5 31 10 6 10 27 8 106 -6 14 -3 32 -15
38 -28 11 -20 21 -23 73 -25 54 -1 60 0 48 14 -7 8 -9 15 -5 15 4 0 2 7 -5 15
-10 12 -9 16 6 22 10 4 19 2 22 -5 5 -17 19 -15 40 8 18 20 18 19 54 -13 62
-55 68 -59 68 -46 0 7 11 10 30 7 l30 -5 -28 51 c-16 27 -35 52 -43 55 -12 4
-12 2 0 -12 12 -15 11 -17 -2 -17 -10 0 -14 -6 -11 -13 3 -9 -3 -13 -18 -12
-13 1 -22 6 -21 11 1 5 -3 14 -8 20 -11 14 20 89 39 90 6 1 21 2 32 2 11 1 20
8 20 16 0 22 17 28 42 15 17 -9 24 -9 33 4 13 19 38 7 30 -14 -4 -10 4 -20 20
-29 32 -17 46 -4 17 16 -12 8 -20 19 -17 23 2 5 -7 19 -21 32 -21 20 -36 24
-84 24 -32 0 -62 4 -66 8 -14 14 -41 7 -63 -17 l-22 -23 38 1 c32 1 39 -3 41
-20 2 -17 -4 -23 -27 -27 -25 -5 -37 0 -71 31 -42 40 -51 55 -25 45 12 -4 11
3 -6 31 -13 23 -27 35 -36 32 -14 -6 -53 26 -53 43 0 5 -8 12 -18 15 -9 3 -28
22 -41 41 -24 36 -72 58 -79 37 -2 -6 -20 7 -41 28 -21 22 -45 40 -53 40 -9 0
-28 7 -44 15 -23 11 -25 15 -11 20 9 4 20 4 25 1 6 -3 27 13 47 37 71 81 87
97 94 97 8 0 45 -36 67 -65 15 -19 15 -19 9 10 -4 17 -20 44 -36 60 -16 17
-29 35 -29 39 0 13 82 101 91 99 4 -2 6 4 3 12 -4 8 -1 15 5 15 6 0 11 8 11
19 0 13 10 20 30 25 26 5 30 9 27 33 -5 39 -31 52 -57 28 -11 -10 -18 -25 -16
-34 3 -10 -20 -43 -59 -86 -36 -38 -65 -73 -65 -77 0 -16 -20 -7 -53 22 -35
31 -61 38 -72 20 -3 -5 0 -10 8 -10 8 0 26 -9 41 -21 31 -24 28 -49 -11 -90
-13 -14 -23 -32 -21 -38 2 -7 -6 -18 -16 -24 -10 -7 -33 -27 -50 -46 l-32 -33
-32 27 c-27 23 -39 26 -69 22 -28 -5 -43 -1 -67 16 -35 25 -124 29 -165 8 -19
-11 -26 -10 -42 5 -16 15 -24 16 -39 6 -13 -8 -21 -8 -25 -1 -4 6 -19 2 -39
-10 -17 -11 -36 -17 -42 -13 -16 11 -46 145 -39 174 4 15 2 29 -4 32 -6 4 -11
22 -11 40 0 37 54 126 76 126 8 0 11 6 7 16 -4 12 -2 15 8 12 8 -3 13 -12 11
-21 -2 -13 4 -15 35 -11 21 2 45 7 54 10 9 2 23 -1 30 -8 8 -8 23 -12 34 -11
11 2 34 5 50 7 100 15 146 15 182 2 21 -8 65 -16 97 -19 52 -3 57 -2 40 10
-19 14 -19 15 1 29 17 13 73 11 98 -3 13 -7 8 -33 -8 -39 -23 -9 -18 -24 9
-24 14 0 33 11 45 25 18 25 19 28 4 72 -13 38 -13 47 -2 54 22 15 -19 41 -52
34 -28 -6 -120 32 -134 56 -5 8 -1 7 15 -1 12 -6 24 -9 27 -7 2 3 -6 11 -19
18 -39 20 -98 77 -85 83 7 2 -3 5 -21 5 -33 1 -145 52 -157 72 -4 6 -26 19
-48 28 l-41 18 3 81 c2 71 1 82 -14 82 -14 0 -16 7 -10 43 4 23 12 44 17 46
13 4 37 30 62 64 10 15 22 27 26 27 9 0 32 -52 29 -66 -9 -47 53 -119 111
-129 30 -5 44 -14 57 -36 20 -33 71 -52 124 -45 19 3 41 5 49 5 22 2 37 14 44
37 5 16 2 23 -14 27 -14 3 -18 10 -14 22 4 9 12 14 19 11 7 -2 16 5 19 17 9
33 7 47 -5 47 -16 0 -40 -27 -37 -42 2 -8 -5 -12 -18 -10 -12 1 -27 -4 -34
-12 -9 -11 -17 -13 -30 -6 -15 8 -17 6 -13 -10 7 -25 56 -51 74 -39 22 14 32
10 18 -7 -8 -10 -20 -13 -33 -9 -12 4 -34 10 -50 13 -18 5 -30 15 -32 27 -2
11 -8 21 -13 23 -6 2 -11 9 -11 16 0 7 -9 21 -20 31 -10 9 -18 21 -17 25 4 14
-60 58 -138 95 -90 42 -207 108 -245 138 -23 18 -23 19 -3 13 12 -4 31 -9 42
-11 11 -2 43 -22 71 -44 29 -23 55 -41 60 -41 14 0 27 24 39 72 15 63 15 63
-20 102 -17 20 -29 41 -27 47 4 13 80 39 116 39 13 0 21 4 18 9 -9 14 25 36
58 37 40 0 141 49 189 91 42 37 49 39 67 18 7 -8 20 -15 29 -14 10 0 12 2 3 6
-6 2 -10 9 -7 13 6 10 55 -9 55 -20 0 -18 48 -16 61 2 7 10 17 18 22 18 14 0
56 -48 49 -56 -4 -4 -1 -4 7 1 8 4 27 8 42 7 16 0 29 3 29 8 0 4 12 11 27 15
15 3 33 15 41 26 7 10 18 19 25 19 8 0 8 -3 -1 -12 -17 -17 -15 -26 9 -30 19
-3 17 -7 -21 -51 -32 -36 -48 -47 -63 -43 -11 3 -29 0 -39 -5 -13 -7 -22 -6
-33 5 -8 8 -24 18 -35 21 -11 3 -20 11 -20 16 0 6 -10 9 -22 7 -30 -4 -35 -34
-8 -43 12 -4 19 -9 16 -12 -3 -3 1 -18 9 -33 11 -21 25 -30 55 -35 24 -4 40
-12 40 -21 0 -7 6 -11 13 -9 6 2 35 6 64 9 44 3 51 1 48 -13 -2 -13 6 -17 37
-17 22 -1 44 -8 49 -15 6 -10 9 -11 9 -1 0 6 5 12 11 12 6 0 9 -7 5 -15 -3 -8
-1 -15 5 -15 6 0 7 -5 4 -10 -3 -6 -1 -10 5 -10 7 0 10 -6 7 -14 -3 -8 -1 -17
6 -19 17 -5 77 54 77 76 0 10 5 15 10 12 6 -4 26 7 46 24 34 31 58 34 48 7 -7
-18 12 -30 23 -14 4 7 9 28 10 47 1 19 6 37 11 40 5 3 11 14 15 23 4 12 12 16
24 11 10 -3 15 -3 11 2 -4 4 4 16 17 27 13 10 27 27 30 38 4 11 12 20 19 20 7
0 21 9 31 20 22 24 35 26 35 5 0 -8 -4 -15 -10 -15 -5 0 -10 -7 -10 -15 0 -8
-4 -15 -9 -15 -5 0 -11 -9 -14 -20 -7 -26 9 -26 23 1 7 11 14 19 16 16 3 -3
16 5 29 17 13 11 29 26 37 33 25 23 38 42 38 58 0 8 4 15 9 15 5 0 16 2 23 5
22 9 19 -34 -3 -46 -19 -9 -19 -12 -6 -27 14 -16 21 -42 18 -67 0 -5 -8 1 -17
13 -8 12 -20 20 -25 17 -15 -10 -10 -25 9 -26 10 0 12 -3 4 -6 -6 -2 -10 -9
-7 -13 3 -5 -5 -14 -17 -21 -13 -7 -34 -24 -47 -38 -14 -14 -28 -25 -31 -24
-3 1 -5 -12 -4 -28 2 -22 -7 -39 -32 -66 -18 -19 -31 -39 -29 -44 3 -4 1 -10
-5 -14 -5 -3 -10 0 -11 7 -1 7 -5 -7 -11 -32 -5 -25 -11 -52 -13 -60 -2 -8 -4
-18 -4 -22 -1 -5 -6 -7 -11 -5 -6 1 -18 -11 -27 -28 -9 -16 -20 -37 -25 -45
-4 -8 -11 -22 -15 -30 -3 -8 -19 -32 -36 -52 -36 -47 -23 -49 25 -4 19 18 42
38 49 42 8 5 26 23 41 41 22 28 27 30 33 15 10 -22 6 -74 -7 -89 -6 -7 -7 -13
-2 -13 4 0 -3 -12 -17 -27 -19 -21 -20 -25 -6 -20 10 4 21 7 23 7 2 0 4 7 4
15 0 10 9 13 30 10 l29 -3 -2 76 c-2 75 -1 77 23 80 21 3 22 2 11 -12 -7 -9
-9 -16 -4 -16 13 0 47 42 48 62 1 10 11 28 23 41 11 12 28 39 37 60 8 20 20
37 25 37 7 0 10 390 10 1120 l0 1120 -1700 0 -1700 0 0 -329z m1620 -49 c17
-25 30 -49 30 -54 0 -4 8 -8 18 -8 14 0 15 -2 2 -10 -12 -7 -12 -12 -2 -22 9
-9 12 -9 13 3 0 7 10 -18 22 -58 18 -60 28 -76 57 -95 69 -47 73 -116 9 -192
-32 -39 -37 -52 -32 -77 5 -26 3 -30 -13 -27 -16 3 -20 -5 -24 -57 l-5 -60 -9
70 c-10 85 -13 91 -37 69 -10 -9 -16 -21 -12 -27 3 -5 1 -7 -5 -3 -6 3 -14 1
-18 -5 -11 -18 -34 19 -34 53 0 15 -4 28 -8 28 -4 0 -8 9 -8 19 0 11 4 17 8
15 4 -3 8 2 8 10 0 24 -38 19 -65 -8 -36 -36 -54 -17 -24 25 12 19 28 37 34
41 6 5 6 8 0 8 -5 0 -11 12 -12 27 0 15 -6 29 -11 31 -5 1 -8 12 -5 22 4 13 0
20 -9 20 -8 0 -23 9 -33 20 -10 11 -28 21 -39 21 -18 1 -18 2 -3 6 10 3 26 -2
35 -10 9 -8 46 -18 81 -21 57 -7 67 -5 102 19 37 24 39 28 34 63 -14 82 -39
137 -84 185 -38 41 -41 47 -18 36 15 -7 41 -33 57 -57z m-1032 -343 c12 0 23
-4 23 -9 1 -6 2 -14 3 -19 0 -5 4 -13 9 -17 14 -14 7 -24 -18 -24 -14 0 -25
-3 -25 -8 0 -10 41 -35 47 -28 11 11 34 -25 28 -44 -6 -19 -8 -19 -28 -5 -31
22 -50 19 -42 -5 7 -21 -10 -28 -18 -7 -9 22 -27 -15 -20 -43 8 -34 12 -40 28
-40 7 0 17 -10 21 -22 l7 -23 8 23 c15 40 27 23 27 -38 0 -55 -2 -60 -21 -60
-33 0 -67 11 -62 20 3 4 -10 14 -28 21 -17 7 -61 34 -97 60 -48 36 -68 45 -77
37 -7 -6 -13 -17 -13 -24 0 -18 1 -18 -63 6 -30 11 -63 30 -73 41 -10 12 -32
28 -47 36 -35 18 -32 41 8 63 29 16 31 16 60 -3 17 -12 33 -26 37 -32 4 -5 8
-6 8 -1 0 4 8 -1 18 -12 9 -11 31 -23 49 -27 25 -5 34 -2 42 13 6 11 7 22 3
26 -3 4 0 5 8 1 21 -8 47 34 29 46 -15 9 -19 7 60 32 28 9 38 16 28 20 -13 5
-14 11 -5 35 11 27 14 29 37 20 14 -6 36 -10 49 -9z m1257 -206 c-6 -166 -11
-197 -31 -189 -8 3 -14 0 -15 -7 -1 -7 -4 -1 -8 13 -4 14 -13 24 -20 22 -8 -1
-10 2 -5 10 14 22 12 77 -2 89 -9 7 -14 33 -14 73 0 58 2 63 30 80 17 10 36
26 43 37 6 10 15 19 20 19 4 0 5 -66 2 -147z m-438 45 c29 -27 29 -36 1 -40
-13 -2 -24 -11 -26 -22 -3 -16 1 -18 33 -14 l37 4 -7 -42 c-4 -31 -2 -46 10
-57 17 -17 20 -47 5 -47 -5 0 -7 -6 -4 -13 3 -8 -2 -20 -11 -27 -8 -7 -15 -20
-15 -29 -1 -12 -5 -11 -20 8 -11 13 -20 20 -20 15 0 -4 -5 -3 -11 3 -6 6 -18
9 -25 6 -9 -3 -14 2 -14 13 0 25 44 45 81 37 16 -3 29 -3 29 0 0 19 -16 40
-38 48 -19 7 -22 13 -14 21 17 17 15 28 -7 28 -12 0 -21 9 -25 25 -6 25 -45
43 -64 31 -6 -3 -12 0 -15 8 -8 21 20 54 51 59 15 2 31 5 36 6 6 0 20 -9 33
-21z m-2 -348 c92 -20 185 -88 208 -152 13 -36 -13 -27 -41 14 -17 24 -44 56
-61 72 l-31 30 17 -43 c20 -51 9 -68 -31 -50 -34 16 -38 10 -24 -29 7 -19 24
-36 41 -43 24 -10 30 -9 48 10 16 17 24 19 39 11 10 -6 22 -15 26 -21 3 -6 20
-17 38 -25 30 -12 28 -13 -34 -9 -36 2 -96 11 -135 20 -38 9 -80 19 -93 22
-14 3 -21 11 -18 19 3 7 -19 31 -50 55 -43 33 -65 43 -105 47 -27 2 -52 9 -55
13 -7 12 -51 11 -59 -1 -3 -5 -15 -10 -25 -10 -10 0 -30 -15 -44 -32 l-26 -33
9 32 c13 45 14 46 66 72 49 25 82 23 110 -6 10 -10 34 -17 57 -17 30 -1 44 -7
58 -26 l20 -25 0 25 c0 14 7 36 16 49 13 18 14 28 5 47 -16 36 -13 42 7 17 10
-14 36 -26 67 -33z m-410 -2212 c18 -8 24 -16 19 -27 -3 -9 -9 -37 -11 -63 -5
-39 -3 -48 10 -48 18 0 12 -33 -9 -51 -12 -10 -21 -8 -43 9 -30 22 -41 20 -41
-9 0 -23 -30 -40 -58 -32 -15 4 -22 1 -22 -10 0 -8 -7 -21 -16 -28 -14 -12
-20 -9 -40 16 -13 17 -24 42 -24 56 0 21 -6 28 -25 32 -14 2 -23 2 -20 -1 8
-9 -16 -32 -34 -32 -12 1 -11 3 5 13 12 7 19 18 17 25 -3 7 3 12 14 12 11 0
24 5 30 11 9 9 14 5 19 -15 9 -37 17 -33 35 17 10 30 19 41 32 39 21 -4 22 16
2 38 -14 16 -12 18 32 30 38 9 85 23 100 29 1 1 14 -4 28 -11z"/>
<path d="M181 2596 c-7 -8 -35 -18 -64 -22 -35 -5 -45 -9 -32 -13 11 -3 21
-16 23 -30 3 -19 0 -22 -13 -17 -13 5 -16 2 -11 -9 3 -9 2 -13 -4 -10 -6 3
-10 13 -10 21 0 8 -4 14 -10 14 -23 0 -8 -39 20 -51 16 -8 31 -20 33 -29 2 -8
7 2 11 23 10 44 22 47 38 10 7 -16 13 -30 14 -31 2 -2 17 -1 34 3 24 5 28 10
20 20 -8 9 -4 17 15 29 31 20 31 28 3 41 -12 6 -25 21 -29 35 -4 14 -8 21 -8
15 -1 -5 -5 -4 -10 3 -6 10 -10 10 -20 -2z"/>
<path d="M2580 1595 c0 -9 7 -29 15 -44 16 -32 12 -41 -21 -41 -12 0 -25 -7
-28 -16 -5 -14 -1 -16 24 -11 17 4 30 2 30 -3 0 -6 -11 -10 -25 -10 -20 0 -25
-5 -25 -26 0 -21 -4 -25 -20 -21 -13 3 -20 0 -20 -10 0 -8 -4 -12 -9 -8 -5 3
-13 -4 -16 -16 -6 -19 -8 -19 -25 -4 -11 10 -25 15 -32 12 -11 -4 -11 -6 0 -6
7 -1 10 -5 7 -11 -3 -6 1 -7 9 -4 17 7 21 -4 8 -22 -8 -13 -72 -24 -72 -12 0
4 -7 8 -15 8 -8 0 -15 -4 -15 -10 0 -5 5 -10 11 -10 8 0 7 -5 -1 -15 -11 -13
-10 -15 6 -9 18 5 18 5 0 -10 -15 -12 -16 -16 -5 -16 23 0 42 -17 34 -30 -5
-7 -10 -8 -14 -2 -9 14 -51 25 -51 13 0 -6 6 -11 13 -12 34 -2 -45 -15 -85
-13 -26 0 -45 -3 -42 -7 3 -5 14 -9 24 -9 13 0 17 -5 14 -15 -4 -9 0 -15 9
-15 10 0 13 -7 10 -18 -6 -26 33 -42 69 -28 15 6 28 14 28 18 0 20 20 6 21
-14 1 -21 2 -21 6 -3 7 25 46 60 51 46 7 -22 24 -10 20 13 -4 17 -1 23 9 19 7
-3 13 1 13 8 0 11 3 11 10 -1 14 -22 13 -27 -12 -50 -21 -19 -21 -21 -3 -14
11 4 23 12 27 18 3 5 20 11 36 12 26 2 43 8 92 35 8 5 30 16 49 24 24 11 31
18 24 28 -13 16 -14 55 -2 62 5 4 9 12 9 18 0 8 -4 7 -9 -2 -14 -23 -34 60
-22 92 5 14 13 27 18 29 4 3 2 3 -4 2 -7 -2 -13 1 -13 6 0 6 5 10 11 10 5 0 8
4 5 9 -3 5 4 11 16 14 18 5 19 8 8 21 -7 9 -20 16 -29 15 -12 0 -12 -2 3 -8
17 -6 17 -8 4 -14 -9 -3 -19 -3 -23 1 -7 7 -12 8 -56 10 -15 1 -27 8 -26 15 1
30 -4 47 -13 47 -5 0 -10 -7 -10 -15z"/>
</g>
</svg>
